<svg width="1020" height="1020" viewBox="0 0 1020 1020" fill="none" xmlns="http://www.w3.org/2000/svg">
<path d="M180.488 521.314C174.24 515.065 174.24 504.935 180.488 498.686L498.686 180.488C504.935 174.24 515.065 174.24 521.314 180.488L551.719 210.894C557.968 217.142 557.968 227.273 551.719 233.521L286.554 498.686C280.306 504.935 280.306 515.065 286.554 521.314L551.719 786.479C557.968 792.727 557.968 802.858 551.719 809.106L521.314 839.512C515.065 845.76 504.935 845.76 498.686 839.512L180.488 521.314Z" fill="url(#paint0_linear_1_2)"/>
<path d="M309.182 521.314C302.933 515.065 302.933 504.935 309.182 498.686L498.686 309.182C504.935 302.933 515.065 302.933 521.314 309.182L551.719 339.587C557.968 345.836 557.968 355.966 551.719 362.215L415.248 498.686C408.999 504.935 408.999 515.065 415.248 521.314L551.719 657.785C557.968 664.034 557.968 674.164 551.719 680.413L521.314 710.818C515.065 717.067 504.935 717.067 498.686 710.818L309.182 521.314Z" fill="url(#paint1_linear_1_2)"/>
<mask id="path-3-inside-1_1_2" fill="white">
<path d="M57.4517 521.314C51.2033 515.065 51.2033 504.935 57.4517 498.686L498.686 57.4516C504.935 51.2033 515.065 51.2032 521.314 57.4516L962.548 498.686C968.797 504.935 968.797 515.065 962.548 521.314L521.314 962.548C515.065 968.797 504.935 968.797 498.686 962.548L57.4517 521.314Z"/>
</mask>
<path d="M46.138 510L510 46.1379L46.138 510ZM1015.58 445.653C1051.12 481.191 1051.12 538.809 1015.58 574.347L627.38 962.548C591.842 998.086 534.224 998.086 498.686 962.548L456.967 920.829C456.967 920.829 462.032 915.764 468.281 909.515L867.796 510L1015.58 445.653ZM510 973.862L46.138 510L510 973.862ZM498.686 57.4516C534.224 21.9139 591.842 21.9139 627.38 57.4516L1015.58 445.653C1051.12 481.191 1051.12 538.809 1015.58 574.347L867.796 510L468.281 110.485C462.032 104.236 456.967 99.1709 456.967 99.1709L498.686 57.4516Z" fill="url(#paint2_linear_1_2)" mask="url(#path-3-inside-1_1_2)"/>
<defs>
<linearGradient id="paint0_linear_1_2" x1="150.088" y1="509.954" x2="862.388" y2="494.593" gradientUnits="userSpaceOnUse">
<stop stop-color="#FDFBDA"/>
<stop offset="0.754099" stop-color="#C7925F"/>
</linearGradient>
<linearGradient id="paint1_linear_1_2" x1="200.716" y1="515.908" x2="733.874" y2="501.254" gradientUnits="userSpaceOnUse">
<stop stop-color="#FDFBDA"/>
<stop offset="0.754099" stop-color="#C7925F"/>
</linearGradient>
<linearGradient id="paint2_linear_1_2" x1="46.138" y1="510" x2="973.862" y2="510" gradientUnits="userSpaceOnUse">
<stop stop-color="#FDFBDA"/>
<stop offset="0.75" stop-color="#C7925F"/>
</linearGradient>
</defs>
</svg>
